<?xml version="1.0" encoding="iso-8859-1"?>
<!-- Uploaded to: SVG Repo, www.svgrepo.com, Generator: SVG Repo Mixer Tools -->
<svg fill="#000000" height="800px" width="800px" version="1.1" id="Layer_1" xmlns="http://www.w3.org/2000/svg" xmlns:xlink="http://www.w3.org/1999/xlink" 
	 viewBox="0 0 512 512" xml:space="preserve">
<g>
	<g>
		<path d="M445.217,168.14V139.13c0-27.618-22.469-50.087-50.087-50.087h-58.524c1.853-5.226,2.872-10.843,2.872-16.696
			c0-27.618-22.469-50.087-50.087-50.087c-12.819,0-24.524,4.846-33.391,12.794c-8.869-7.948-20.572-12.794-33.391-12.794
			c-27.618,0-50.087,22.469-50.087,50.087c0,5.852,1.018,11.47,2.872,16.696H116.87c-27.618,0-50.087,22.469-50.087,50.087v29.01
			C20.018,251.085,0,322.549,0,406.261c0,46.03,37.448,83.478,83.478,83.478h345.043c46.03,0,83.478-37.448,83.478-83.478
			C512,322.549,491.981,251.084,445.217,168.14z M289.391,55.652c9.206,0,16.696,7.49,16.696,16.696s-7.49,16.696-16.696,16.696
			s-16.696-7.49-16.696-16.696S280.185,55.652,289.391,55.652z M222.609,55.652c9.206,0,16.696,7.49,16.696,16.696
			s-7.49,16.696-16.696,16.696s-16.696-7.49-16.696-16.696S213.403,55.652,222.609,55.652z M100.174,139.13
			c0-9.206,7.49-16.696,16.696-16.696H395.13c9.206,0,16.696,7.49,16.696,16.696v16.696H100.174V139.13z M428.522,456.348H83.478
			c-27.618,0-50.087-22.469-50.087-50.087c0-77.053,17.418-140.568,59.845-217.043h325.526
			c42.428,76.475,59.846,139.991,59.846,217.043C478.609,433.879,456.14,456.348,428.522,456.348z"/>
	</g>
</g>
</svg>