<svg xmlns="http://www.w3.org/2000/svg" version="1.1" xmlns:xlink="http://www.w3.org/1999/xlink" xmlns:svgjs="http://svgjs.dev/svgjs" width="512px" height="512px"><svg width="512px" height="512px" version="1.1" xmlns="http://www.w3.org/2000/svg" xmlns:xlink="http://www.w3.org/1999/xlink" xml:space="preserve" xmlns:serif="http://www.serif.com/" style="fill-rule:evenodd;clip-rule:evenodd;stroke-linecap:round;stroke-miterlimit:1.5;">
    <g transform="matrix(1,0,0,1,3,0)">
        <g>
            <g transform="matrix(1.02145,0,0,1.13034,-8.44379,-60.1772)">
                <rect x="393.585" y="374.559" width="91.677" height="87.125" style="fill:#aad3a9;"></rect>
            </g>
            <g>
                <path d="M407.145,402.875C407.145,402.875 406.244,368.671 439.609,369.297C472.975,369.924 471.58,404.367 471.009,407.399C471.009,407.399 459.922,438.507 439.549,451.624C439.549,451.624 409.322,434.258 407.145,402.875Z" style="fill:#52b2b0;"></path>
                <g transform="matrix(1.11459,0,0,1.11459,-46.2782,-48.0695)">
                    <circle cx="434.959" cy="401.027" r="19.335" style="fill:#fcf793;"></circle>
                </g>
            </g>
        </g>
        <g>
            <g transform="matrix(1,0,0,0.983529,0,3.8661)">
                <rect x="391.477" y="234.715" width="97.009" height="130.197" style="fill:#fcfffe;"></rect>
            </g>
            <g transform="matrix(1,0,0,1,-31,0)">
                <path d="M450.61,332.068C446.055,330.433 442.793,326.074 442.793,320.959C442.793,314.447 448.08,309.16 454.592,309.16C461.105,309.16 466.392,314.447 466.392,320.959C466.392,326.024 463.194,330.348 458.708,332.019C459.505,332.357 460.291,332.808 461.061,333.382C472.399,341.839 473.433,357.179 473.433,357.179L435.577,357.179C435.045,347.296 442.306,335.304 450.61,332.068Z" style="fill:#e88c4b;"></path>
            </g>
            <path d="M450.61,332.068C446.055,330.433 442.793,326.074 442.793,320.959C442.793,314.447 448.08,309.16 454.592,309.16C461.105,309.16 466.392,314.447 466.392,320.959C466.392,326.024 463.194,330.348 458.708,332.019C459.505,332.357 460.291,332.808 461.061,333.382C472.399,341.839 473.433,357.179 473.433,357.179L435.577,357.179C435.045,347.296 442.306,335.304 450.61,332.068Z" style="fill:#57bfee;"></path>
        </g>
        <g>
            <g transform="matrix(1,0,0,0.996106,0,0.256676)">
                <rect x="390.953" y="65.921" width="98.982" height="171.718" style="fill:#a2c0e4;"></rect>
            </g>
            <path d="M436.677,165.088L445.055,190.871L472.165,190.871L450.232,206.806L458.61,232.589L436.677,216.654L414.745,232.589L423.122,206.806L401.19,190.871L428.3,190.871L436.677,165.088Z" style="fill:#f3d18a;"></path>
            <g>
                <rect x="395.145" y="78.045" width="54.777" height="8.745" style="fill:#fcf893;"></rect>
                <g transform="matrix(0.670648,0,0,1,191.142,0)">
                    <rect x="395.145" y="78.045" width="54.777" height="8.745" style="fill:#fcf893;"></rect>
                </g>
                <g transform="matrix(1.08156,0,0,1,1.30322,14)">
                    <rect x="395.145" y="78.045" width="54.777" height="8.745" style="fill:#fcf893;"></rect>
                </g>
                <g transform="matrix(0.509716,0,0,1,193.733,14)">
                    <rect x="395.145" y="78.045" width="54.777" height="8.745" style="fill:#fcf893;"></rect>
                </g>
                <g transform="matrix(1.18625,0,0,1,-73.5948,28)">
                    <rect x="395.145" y="78.045" width="54.777" height="8.745" style="fill:#fcf893;"></rect>
                </g>
                <g transform="matrix(1,0,0,1,0,42)">
                    <rect x="395.145" y="78.045" width="54.777" height="8.745" style="fill:#fcf893;"></rect>
                </g>
                <g transform="matrix(0.650788,0,0,1,197.989,42)">
                    <rect x="395.145" y="78.045" width="54.777" height="8.745" style="fill:#fcf893;"></rect>
                </g>
                <g transform="matrix(0.519111,0,0,1,190.021,56)">
                    <rect x="395.145" y="78.045" width="54.777" height="8.745" style="fill:#fcf893;"></rect>
                </g>
                <g transform="matrix(1.14906,0,0,1,-26.1938,56)">
                    <rect x="395.145" y="78.045" width="54.777" height="8.745" style="fill:#fcf893;"></rect>
                </g>
                <g transform="matrix(0.489553,0,0,1,270.701,28)">
                    <rect x="395.145" y="78.045" width="54.777" height="8.745" style="fill:#fcf893;"></rect>
                </g>
                <g transform="matrix(0.465949,0,0,1,211.028,70)">
                    <rect x="395.145" y="78.045" width="54.777" height="8.745" style="fill:#fcf893;"></rect>
                </g>
                <g transform="matrix(0.625686,0,0,1,178.3,70)">
                    <rect x="395.145" y="78.045" width="54.777" height="8.745" style="fill:#fcf893;"></rect>
                </g>
                <g transform="matrix(0.519111,0,0,1,259.021,70)">
                    <rect x="395.145" y="78.045" width="54.777" height="8.745" style="fill:#fcf893;"></rect>
                </g>
            </g>
        </g>
        <g>
            <g transform="matrix(1,0,0,1.35942,0,-87.1601)">
                <rect x="388.914" y="242.499" width="98.867" height="45.355" style="fill:#52b0ad;"></rect>
            </g>
            <g transform="matrix(1.00492,0,0,1,-2.34157,0)">
                <rect x="400.083" y="252.104" width="76.291" height="17.873" style="fill:#3a55a5;"></rect>
            </g>
            <g transform="matrix(1.79951,0,0,1,-321.573,0)">
                <rect x="402.214" y="254.828" width="26.03" height="12.591" style="fill:#fdfffe;"></rect>
            </g>
            <g transform="matrix(1.00492,0,0,1,-2.34157,24)">
                <rect x="400.083" y="252.104" width="76.291" height="17.873" style="fill:#3a55a5;"></rect>
            </g>
            <g transform="matrix(1.08746,0,0,1,-35.1778,24)">
                <rect x="402.214" y="254.828" width="26.03" height="12.591" style="fill:#fdfffe;"></rect>
            </g>
        </g>
        <path d="M390.827,65.827L490,65.155L486.977,462.364L391.22,462.041L390.827,65.827Z" style="fill:none;stroke:#000;stroke-width:15px;"></path>
    </g>
    <g transform="matrix(1,0,0,1,3,0)">
        <path d="M15.372,63.997L115.076,63.997L115.076,317.009C115.076,317.009 117.302,380.478 166.868,377.129C216.434,373.78 222.889,330.261 222.845,310.616C222.801,290.971 221.443,64.672 221.443,64.672L321.123,65.537L320.425,312.54C320.425,312.54 321.475,366.836 280.501,431.065C280.501,431.065 246.792,473.238 165.853,470.496C84.915,467.754 30.035,455.651 16.003,311.528L15.372,63.997Z" style="fill:none;"></path>
        <clipPath id="SvgjsClipPath1012">
            <path d="M15.372,63.997L115.076,63.997L115.076,317.009C115.076,317.009 117.302,380.478 166.868,377.129C216.434,373.78 222.889,330.261 222.845,310.616C222.801,290.971 221.443,64.672 221.443,64.672L321.123,65.537L320.425,312.54C320.425,312.54 321.475,366.836 280.501,431.065C280.501,431.065 246.792,473.238 165.853,470.496C84.915,467.754 30.035,455.651 16.003,311.528L15.372,63.997Z"></path>
        </clipPath>
        <g clip-path="url(#_clip1)">
            <g>
                <g transform="matrix(1.02995,0,0,1,-9.64636,0)">
                    <path d="M322.097,305.496L224.241,304.769L220.23,459.831C220.23,459.831 296.616,481.71 322.097,305.496Z" style="fill:#fff795;"></path>
                </g>
                <path d="M238.541,326.473L315.403,326.473C315.403,326.473 312.782,361.786 300.311,390.745L276.99,390.686L242.96,420.817L259.277,391.805C259.277,391.805 239.201,391.405 239.546,391.165C239.89,390.925 231.856,389.451 232.397,381.464C232.397,381.464 228.796,327.859 238.541,326.473Z" style="fill:#51b2b0;"></path>
                <g>
                    <g transform="matrix(1.03316,0,0,1,-5.05275,0)">
                        <path d="M165.288,378.913C165.288,378.913 208.511,379.816 219.874,340.929L217.96,464.035C217.96,464.035 166.464,477.746 116.214,463.058L116.21,338.613C116.21,338.613 122.988,372.999 165.288,378.913Z" style="fill:#e68d47;"></path>
                    </g>
                    <g transform="matrix(1,0,0,1,0,15)">
                        <path d="M135.573,397.589L169.421,427.218L202.57,398.527" style="fill:none;stroke:#fffef8;stroke-width:5px;stroke-linecap:square;"></path>
                    </g>
                    <g transform="matrix(1,0,0,1,0,-1)">
                        <path d="M135.573,397.589L169.421,427.218L202.57,398.527" style="fill:none;stroke:#fffef8;stroke-width:5px;stroke-linecap:square;"></path>
                    </g>
                </g>
                <g transform="matrix(1,0,0,0.0402262,0,297.308)">
                    <rect x="222.976" y="65.253" width="97.391" height="244.516" style="fill:#fefefe;"></rect>
                </g>
                <g transform="matrix(1,0,0,0.960946,0,2.26713)">
                    <rect x="222.976" y="65.253" width="97.391" height="244.516" style="fill:#b2b3b7;"></rect>
                </g>
                <g>
                    <g transform="matrix(1.05249,0,0,1.05249,-10.0242,-8.14955)">
                        <circle cx="267.181" cy="117.158" r="34.345" style="fill:#fdffff;"></circle>
                    </g>
                    <g transform="matrix(8.32667e-17,1.29341,-0.73752,5.55112e-17,363.37,-237.229)">
                        <path d="M272.857,100.329L289.465,133.546L256.248,133.546L272.857,100.329Z" style="fill:#e4924a;"></path>
                    </g>
                </g>
                <path d="M269.363,250.816L251.512,250.795C251.512,250.795 242.326,251.581 242.18,262.056L242.455,280.377C242.455,280.377 246.22,290.296 251.905,289.857L281.745,290.009C281.745,290.009 288.014,288.577 289.972,285.219L300.437,285.009L301.129,252.488L289.66,252.063C289.66,252.063 288.77,248.138 287.776,246.287C286.781,244.435 283.035,241.12 281.576,241.202C280.116,241.284 279.338,228.016 273.163,228.136C266.987,228.256 265.886,237.363 267.396,243.843C268.906,250.323 269.363,250.816 269.363,250.816Z" style="fill:#fff;"></path>
                <g>
                    <g transform="matrix(1.02526,0,0,1,-7.24163,0)">
                        <path d="M225.403,174.53L300.18,174.53L312.493,195.14L299.555,217.873L225.782,217.873L225.403,174.53Z" style="fill:#e06335;"></path>
                    </g>
                    <g transform="matrix(1.02526,0,0,1,-22.2416,0)">
                        <path d="M238.398,174.53L300.18,174.53L312.493,195.14L299.555,217.873L237.765,217.873" style="fill:#fffdfd;"></path>
                    </g>
                    <g transform="matrix(1.02526,0,0,1,-37.2416,0)">
                        <path d="M253.596,174.53L300.18,174.53L312.493,195.14L299.555,217.873L253.418,217.873" style="fill:#51b3b0;"></path>
                    </g>
                </g>
            </g>
            <g>
                <g transform="matrix(1,0,0,1.01793,0,-8.30177)">
                    <path d="M114.355,150.788L114.355,463.054C114.355,463.054 33.343,460.964 18.495,341.683L16.577,147.343L114.355,150.788Z" style="fill:#fefefe;"></path>
                </g>
                <g>
                    <g transform="matrix(1.0253,0,0,1.05883,-0.440132,-21.581)">
                        <path d="M17.185,286.363C17.185,286.363 68.103,281.152 94.32,339.097C120.536,397.042 83.423,427.117 65.281,440.158C47.138,453.199 1.632,312.124 17.185,286.363Z" style="fill:#59b2d9;"></path>
                    </g>
                    <path d="M16.601,290.669C16.601,290.669 73.464,288.496 92.031,350.208C92.031,350.208 111.341,397.691 59.952,436.882C59.952,436.882 13.282,396.196 16.601,290.669Z" style="fill:#e28e47;"></path>
                    <path d="M26.935,362.734L81.243,342.054C81.243,342.054 93.876,381.9 72.577,411.943L36.603,397.613L26.935,362.734Z" style="fill:#fcf792;"></path>
                    <path d="M44.107,306.795C44.107,306.795 62.331,310.437 72.409,330.841L25.859,351.957L22.669,340.523L44.107,306.795Z" style="fill:#51b2b0;"></path>
                </g>
                <g>
                    <g transform="matrix(1,0,0,1.0087,-0.154297,-2.05911)">
                        <rect x="15.697" y="168.697" width="96.973" height="95.434" style="fill:#acd2ab;"></rect>
                    </g>
                    <g transform="matrix(1,0,0,1,0,-1)">
                        <circle cx="64.374" cy="216.726" r="31.417" style="fill:#fffffd;"></circle>
                    </g>
                    <path d="M46.841,205.259L82.458,205.259" style="fill:none;stroke:#59b2d9;stroke-width:4px;"></path>
                    <g transform="matrix(1,0,0,1,0,10)">
                        <path d="M46.841,205.259L82.458,205.259" style="fill:none;stroke:#59b2d9;stroke-width:4px;"></path>
                    </g>
                    <g transform="matrix(1,0,0,1,0,20)">
                        <path d="M46.841,205.259L82.458,205.259" style="fill:none;stroke:#59b2d9;stroke-width:4px;"></path>
                    </g>
                </g>
                <g>
                    <g transform="matrix(1.016,0,0,1.09651,-0.262233,-6.0742)">
                        <rect x="16.39" y="62.937" width="95.949" height="81.879" style="fill:#f6cd85;"></rect>
                    </g>
                    <rect x="27.468" y="77.261" width="34.316" height="34.348" style="fill:#de6536;"></rect>
                    <g transform="matrix(0.904049,0,0,0.904049,3.34931,9.11025)">
                        <path d="M31.458,80.814L59.198,109.08" style="fill:none;stroke:#ffdbc3;stroke-width:4px;stroke-linecap:square;"></path>
                    </g>
                    <g transform="matrix(0.0084805,0.904009,-0.904009,0.0084805,129.777,53.1642)">
                        <path d="M31.458,80.814L59.198,109.08" style="fill:none;stroke:#fcd9bd;stroke-width:4px;stroke-linecap:square;"></path>
                    </g>
                </g>
            </g>
        </g>
        <path d="M15.372,63.997L115.076,63.997L115.076,317.009C115.076,317.009 117.302,380.478 166.868,377.129C216.434,373.78 222.889,330.261 222.845,310.616C222.801,290.971 221.443,64.672 221.443,64.672L321.123,65.537L320.425,312.54C320.425,312.54 321.475,366.836 280.501,431.065C280.501,431.065 246.792,473.238 165.853,470.496C84.915,467.754 30.035,455.651 16.003,311.528L15.372,63.997Z" style="fill:none;stroke:#000;stroke-width:15px;"></path>
    </g>
</svg><style>@media (prefers-color-scheme: light) { :root { filter: none; } }
@media (prefers-color-scheme: dark) { :root { filter: none; } }
</style></svg>